<?xml version="1.0" encoding="UTF-8" standalone="no"?>
<!DOCTYPE svg PUBLIC "-//W3C//DTD SVG 1.1//EN"
 "http://www.w3.org/Graphics/SVG/1.1/DTD/svg11.dtd">
<!-- Generated by graphviz version 2.26.3 (20100126.1600)
 -->
<!-- Title: G Pages: 1 -->
<svg width="472pt" height="280pt"
 viewBox="0.00 0.00 472.00 280.00" xmlns="http://www.w3.org/2000/svg" xmlns:xlink="http://www.w3.org/1999/xlink">
<g id="graph1" class="graph" transform="scale(1 1) rotate(0) translate(4 276)">
<title>G</title>
<polygon fill="white" stroke="white" points="-4,5 -4,-276 469,-276 469,5 -4,5"/>
<g id="graph2" class="cluster"><title>cluster_Sporcle</title>
<polyline fill="none" stroke="gray" points="194,-44 444,-44 "/>
<path fill="none" stroke="gray" d="M444,-44C450,-44 456,-50 456,-56"/>
<polyline fill="none" stroke="gray" points="456,-56 456,-252 "/>
<path fill="none" stroke="gray" d="M456,-252C456,-258 450,-264 444,-264"/>
<polyline fill="none" stroke="gray" points="444,-264 194,-264 "/>
<path fill="none" stroke="gray" d="M194,-264C188,-264 182,-258 182,-252"/>
<polyline fill="none" stroke="gray" points="182,-252 182,-56 "/>
<path fill="none" stroke="gray" d="M182,-56C182,-50 188,-44 194,-44"/>
<text text-anchor="middle" x="319" y="-250.1" font-family="Times Roman,serif" font-size="11.00" fill="gray">Sporcle</text>
</g>
<g id="graph3" class="cluster"><title>cluster_Sporcle\DB</title>
<polyline fill="none" stroke="gray" points="202,-52 436,-52 "/>
<path fill="none" stroke="gray" d="M436,-52C442,-52 448,-58 448,-64"/>
<polyline fill="none" stroke="gray" points="448,-64 448,-222 "/>
<path fill="none" stroke="gray" d="M448,-222C448,-228 442,-234 436,-234"/>
<polyline fill="none" stroke="gray" points="436,-234 202,-234 "/>
<path fill="none" stroke="gray" d="M202,-234C196,-234 190,-228 190,-222"/>
<polyline fill="none" stroke="gray" points="190,-222 190,-64 "/>
<path fill="none" stroke="gray" d="M190,-64C190,-58 196,-52 202,-52"/>
<text text-anchor="middle" x="319" y="-220.1" font-family="Times Roman,serif" font-size="11.00" fill="gray">DB</text>
</g>
<!-- \\Sporcle\\DB\\Pool -->
<g id="node3" class="node"><title>\\Sporcle\\DB\\Pool</title>
<a xlink:href="Pool.html" xlink:title="Pool" target="_parent">
<polygon fill="none" stroke="black" points="428,-204 374,-204 374,-168 428,-168 428,-204"/>
<text text-anchor="middle" x="401" y="-183.1" font-family="Courier,monospace" font-size="11.00">Pool</text>
</a>
</g>
<!-- \\Sporcle\\DB\\Mysqli -->
<g id="node4" class="node"><title>\\Sporcle\\DB\\Mysqli</title>
<a xlink:href="Mysqli.html" xlink:title="Mysqli" target="_parent">
<polygon fill="none" stroke="black" points="255,-150 199,-150 199,-114 255,-114 255,-150"/>
<text text-anchor="middle" x="227" y="-129.1" font-family="Courier,monospace" font-size="11.00">Mysqli</text>
</a>
</g>
<!-- \\mysqli -->
<g id="node8" class="node"><title>\\mysqli</title>
<ellipse fill="none" stroke="black" cx="46" cy="-132" rx="45.9619" ry="18.3848"/>
<text text-anchor="middle" x="46" y="-128.4" font-family="Times Roman,serif" font-size="14.00" fill="gray">\mysqli</text>
</g>
<!-- \\Sporcle\\DB\\Mysqli&#45;&gt;\\mysqli -->
<g id="edge4" class="edge"><title>\\Sporcle\\DB\\Mysqli&#45;&gt;\\mysqli</title>
<path fill="none" stroke="black" d="M198.32,-132C172.595,-132 134.105,-132 102.253,-132"/>
<polygon fill="none" stroke="black" points="102.17,-128.5 92.1698,-132 102.17,-135.5 102.17,-128.5"/>
</g>
<!-- \\Sporcle\\DB\\MysqliRO -->
<g id="node5" class="node"><title>\\Sporcle\\DB\\MysqliRO</title>
<a xlink:href="MysqliRO.html" xlink:title="MysqliRO" target="_parent">
<polygon fill="none" stroke="black" points="436,-150 366,-150 366,-114 436,-114 436,-150"/>
<text text-anchor="middle" x="401" y="-129.1" font-family="Courier,monospace" font-size="11.00">MysqliRO</text>
</a>
</g>
<!-- \\Sporcle\\DB\\MysqliRO&#45;&gt;\\Sporcle\\DB\\Mysqli -->
<g id="edge6" class="edge"><title>\\Sporcle\\DB\\MysqliRO&#45;&gt;\\Sporcle\\DB\\Mysqli</title>
<path fill="none" stroke="black" d="M365.369,-132C336.374,-132 295.521,-132 265.723,-132"/>
<polygon fill="none" stroke="black" points="265.682,-128.5 255.682,-132 265.682,-135.5 265.682,-128.5"/>
</g>
<!-- \\Sporcle\\DB\\Exception -->
<g id="node6" class="node"><title>\\Sporcle\\DB\\Exception</title>
<a xlink:href="Exception.html" xlink:title="Exception" target="_parent">
<polygon fill="none" stroke="black" points="439,-96 363,-96 363,-60 439,-60 439,-96"/>
<text text-anchor="middle" x="401" y="-75.1" font-family="Courier,monospace" font-size="11.00">Exception</text>
</a>
</g>
<!-- \\Exception -->
<g id="node11" class="node"><title>\\Exception</title>
<ellipse fill="none" stroke="black" cx="227" cy="-18" rx="62.9325" ry="18.3848"/>
<text text-anchor="middle" x="227" y="-14.4" font-family="Times Roman,serif" font-size="14.00" fill="gray">\Exception</text>
</g>
<!-- \\Sporcle\\DB\\Exception&#45;&gt;\\Exception -->
<g id="edge8" class="edge"><title>\\Sporcle\\DB\\Exception&#45;&gt;\\Exception</title>
<path fill="none" stroke="black" d="M362.384,-64.6841C337.238,-56.013 304.185,-44.6154 277.033,-35.2527"/>
<polygon fill="none" stroke="black" points="277.917,-31.8554 267.322,-31.9042 275.635,-38.473 277.917,-31.8554"/>
</g>
</g>
</svg>
